



___________________________________________________________________________________


                    Crime Does Not Pay ! But I Always Pay !                 

___________________________________________________________________________________





Note : Hard Coded English Sub Available. Original DVD Is Out Now. Enjoy !




Screens :


 
http://www.shotpix.com/images/75013791363516208096.jpg
 
http://www.shotpix.com/images/43451145362412651618.jpg
 
http://i.imgur.com/bM8lS.jpg



Extra Screens :


 
http://www.shotpix.com/images/93439325985918036624.jpg
 
http://www.shotpix.com/images/93343748741351597004.jpg
 
http://www.shotpix.com/images/79770660689330878723.jpg
 
http://www.shotpix.com/images/34619064509854083841.jpg
 
http://www.shotpix.com/images/65914487715772628026.jpg



Media Info :



Format/Info                      : Audio Video Interleave
File size                        : 783 MiB
Duration                         : 2h 1mn
Overall bit rate                 : 900 Kbps

Video
ID                               : 0
Format                           : MPEG-4 Visual
Format profile                   : Simple@L1
Format settings, BVOP            : No
Format settings, QPel            : No
Format settings, GMC             : No warppoints
Format settings, Matrix          : Default (H.263)
Codec ID                         : DX50
Codec ID/Hint                    : DivX 5
Duration                         : 2h 1mn
Bit rate                         : 760 Kbps
Width                            : 720 pixels
Height                           : 404 pixels
Display aspect ratio             : 4:3
Frame rate                       : 23.976 fps
Color space                      : YUV
Chroma subsampling               : 4:2:0
Bit depth                        : 8 bits
Scan type                        : Progressive
Compression mode                 : Lossy
Bits/(Pixel*Frame)               : 0.109
Stream size                      : 660 MiB (84%)

Audio
ID                               : 1
Format                           : MPEG Audio
Format version                   : Version 1
Format profile                   : Layer 3
Codec ID                         : 55
Codec ID/Hint                    : MP3
Duration                         : 2h 1mn
Bit rate mode                    : Constant
Bit rate                         : 128 Kbps
Channel(s)                       : 2 channels
Sampling rate                    : 48.0 KHz
Compression mode                 : Lossy
Stream size                      : 111 MiB (14%)
Alignment                        : Aligned on interleaves
Interleave, duration             : 24 ms (0.58 video frame)
Interleave, preload duration     : 504 ms




___________________________________________________________________________________


                    Crime Does Not Pay ! But I Always Pay !                 

___________________________________________________________________________________




